<?xml version="1.0" encoding="UTF-8" standalone="no"?><!DOCTYPE svg PUBLIC "-//W3C//DTD SVG 1.1//EN" "http://www.w3.org/Graphics/SVG/1.1/DTD/svg11.dtd"><svg width="100%" height="100%" viewBox="0 0 3308 3308" version="1.1" xmlns="http://www.w3.org/2000/svg" xmlns:xlink="http://www.w3.org/1999/xlink" xml:space="preserve" xmlns:serif="http://www.serif.com/" style="fill-rule:evenodd;clip-rule:evenodd;stroke-linejoin:round;stroke-miterlimit:2;"><path d="M1417.32,354.331c0,-195.561 -158.77,-354.331 -354.331,-354.331l-708.661,0c-195.561,0 -354.331,158.77 -354.331,354.331l0,708.661c0,195.561 158.77,354.331 354.331,354.331l708.661,0c195.561,0 354.331,-158.77 354.331,-354.331l0,-708.661Zm-250,0l0,708.661c0,57.582 -46.749,104.331 -104.331,104.331l-708.661,0c-57.582,0 -104.331,-46.749 -104.331,-104.331l0,-708.661c0,-57.582 46.749,-104.331 104.331,-104.331l708.661,0c57.582,0 104.331,46.749 104.331,104.331Z"/><path d="M944.882,590.551c0,-65.187 -52.924,-118.11 -118.11,-118.11l-236.221,0c-65.187,0 -118.11,52.923 -118.11,118.11l0,283.465c0,65.187 52.923,118.11 118.11,118.11l236.221,0c65.186,0 118.11,-52.923 118.11,-118.11l0,-283.465Z" style="fill:#ebebeb;"/><path d="M944.882,590.551c0,-65.187 -52.924,-118.11 -118.11,-118.11l-236.221,0c-65.187,0 -118.11,52.923 -118.11,118.11l0,283.465c0,65.187 52.923,118.11 118.11,118.11l236.221,0c65.186,0 118.11,-52.923 118.11,-118.11l0,-283.465Z"/><path d="M1712.6,0c-32.593,0 -59.055,26.462 -59.055,59.055l0,354.331c0,32.593 26.462,59.055 59.055,59.055l118.111,0c32.593,0 59.055,-26.462 59.055,-59.055l0,-354.331c0,-32.593 -26.462,-59.055 -59.055,-59.055l-118.111,0Z"/><path d="M1712.6,0c-32.593,0 -59.055,26.462 -59.055,59.055l0,354.331c0,32.593 26.462,59.055 59.055,59.055l118.111,0c32.593,0 59.055,-26.462 59.055,-59.055l0,-354.331c0,-32.593 -26.462,-59.055 -59.055,-59.055l-118.111,0Zm52.486,234.035l-5.538,2.185l5.538,2.186l6.57,2.224l6.569,-2.224l5.538,-2.186l-5.538,-2.185l-6.569,-2.225l-6.57,2.225Z"/><path d="M2834.65,531.496c0,-32.593 -26.462,-59.055 -59.055,-59.055l-614.174,0c-32.593,0 -59.055,26.462 -59.055,59.055l0,118.11c0,32.594 26.462,59.055 59.055,59.055l614.174,0c32.593,0 59.055,-26.461 59.055,-59.055l0,-118.11Z" style="fill:#ebebeb;"/><path d="M2834.65,531.496c0,-32.593 -26.462,-59.055 -59.055,-59.055l-614.174,0c-32.593,0 -59.055,26.462 -59.055,59.055l0,118.11c0,32.594 26.462,59.055 59.055,59.055l614.174,0c32.593,0 59.055,-26.461 59.055,-59.055l0,-118.11Z"/><path d="M3307.09,1003.94c0,-32.593 -26.462,-59.055 -59.056,-59.055l-118.11,0c-32.593,0 -59.055,26.462 -59.055,59.055l0,590.551c0,32.594 26.462,59.055 59.055,59.055l118.11,0c32.594,0 59.056,-26.461 59.056,-59.055l0,-590.551Z" style="fill:#ebebeb;"/><path d="M3307.09,1003.94c0,-32.593 -26.462,-59.055 -59.056,-59.055l-118.11,0c-32.593,0 -59.055,26.462 -59.055,59.055l0,590.551c0,32.594 26.462,59.055 59.055,59.055l118.11,0c32.594,0 59.056,-26.461 59.056,-59.055l0,-590.551Z"/><path d="M708.661,1948.82c0,-32.594 -26.461,-59.055 -59.055,-59.055l-118.11,0c-32.593,0 -59.055,26.461 -59.055,59.055l0,826.772c0,32.593 26.462,59.055 59.055,59.055l118.11,0c32.594,0 59.055,-26.462 59.055,-59.055l0,-826.772Z"/><path d="M1417.32,2421.26c0,-32.594 -26.462,-59.055 -59.055,-59.055l-354.331,0c-32.593,0 -59.055,26.461 -59.055,59.055l0,118.11c0,32.593 26.462,59.055 59.055,59.055l354.331,0c32.593,0 59.055,-26.462 59.055,-59.055l0,-118.11Z"/><path d="M1417.32,2421.26c0,-32.594 -26.462,-59.055 -59.055,-59.055l-354.331,0c-32.593,0 -59.055,26.461 -59.055,59.055l0,118.11c0,32.593 26.462,59.055 59.055,59.055l354.331,0c32.593,0 59.055,-26.462 59.055,-59.055l0,-118.11Zm-238.406,52.485l-2.225,6.57l2.225,6.57l2.185,5.538l2.185,-5.538l2.225,-6.57l-2.225,-6.57l-2.185,-5.538l-2.185,5.538Z"/><rect x="1181.1" y="2125.98" width="236.22" height="341.18"/><rect x="1181.1" y="2125.98" width="236.22" height="341.18"/><path d="M944.882,1948.82c0,-32.594 -26.462,-59.055 -59.055,-59.055l-354.331,0c-32.593,0 -59.055,26.461 -59.055,59.055l0,118.11c0,32.594 26.462,59.055 59.055,59.055l354.331,0c32.593,0 59.055,-26.461 59.055,-59.055l0,-118.11Z"/><path d="M944.882,1948.82c0,-32.594 -26.462,-59.055 -59.055,-59.055l-354.331,0c-32.593,0 -59.055,26.461 -59.055,59.055l0,118.11c0,32.594 26.462,59.055 59.055,59.055l354.331,0c32.593,0 59.055,-26.461 59.055,-59.055l0,-118.11Zm-238.406,52.485l-2.225,6.57l2.225,6.57l2.185,5.538l2.186,-5.538l2.224,-6.57l-2.224,-6.57l-2.186,-5.538l-2.185,5.538Z"/><path d="M1417.32,1712.6c0,-32.593 -26.462,-59.055 -59.055,-59.055l-118.111,0c-32.593,0 -59.055,26.462 -59.055,59.055l0,590.552c0,32.593 26.462,59.055 59.055,59.055l118.111,0c32.593,0 59.055,-26.462 59.055,-59.055l0,-590.552Z"/><path d="M3307.09,2244.09c0,-195.56 -158.771,-354.33 -354.331,-354.33l-708.662,0c-195.56,0 -354.33,158.77 -354.33,354.33l0,708.662c0,195.56 158.77,354.331 354.33,354.331l708.662,0c195.56,0 354.331,-158.771 354.331,-354.331l0,-708.662Zm-250,0l0,708.662c0,57.582 -46.749,104.331 -104.331,104.331l-708.662,0c-57.581,0 -104.33,-46.749 -104.33,-104.331c0,0 0,-708.662 0,-708.662c0,-57.581 46.749,-104.33 104.33,-104.33c0,0 708.662,0 708.662,0c57.582,0 104.331,46.749 104.331,104.33Z"/><path d="M236.22,2893.7c0,-32.594 -26.461,-59.055 -59.055,-59.055l-118.11,0c-32.593,0 -59.055,26.461 -59.055,59.055l0,354.33c0,32.594 26.462,59.056 59.055,59.056l118.11,0c32.594,0 59.055,-26.462 59.055,-59.056l0,-354.33Zm-124.68,174.98l-5.537,2.185l5.537,2.185l6.57,2.225l6.57,-2.225l5.538,-2.185l-5.538,-2.185l-6.57,-2.225l-6.57,2.225Z"/><path d="M236.22,2185.04c0,-32.593 -26.461,-59.055 -59.055,-59.055l-118.11,0c-32.593,0 -59.055,26.462 -59.055,59.055l0,354.331c0,32.593 26.462,59.055 59.055,59.055l118.11,0c32.594,0 59.055,-26.462 59.055,-59.055l0,-354.331Z"/><path d="M236.22,2185.04c0,-32.593 -26.461,-59.055 -59.055,-59.055l-118.11,0c-32.593,0 -59.055,26.462 -59.055,59.055l0,354.331c0,32.593 26.462,59.055 59.055,59.055l118.11,0c32.594,0 59.055,-26.462 59.055,-59.055l0,-354.331Zm-124.68,174.981l-5.537,2.185l5.537,2.185l6.57,2.225l6.57,-2.225l5.538,-2.185l-5.538,-2.185l-6.57,-2.225l-6.57,2.225Z"/><path d="M236.22,1712.6c0,-32.593 -26.461,-59.055 -59.055,-59.055l-118.11,0c-32.593,0 -59.055,26.462 -59.055,59.055l0,118.111c0,32.593 26.462,59.055 59.055,59.055l118.11,0c32.594,0 59.055,-26.462 59.055,-59.055l0,-118.111Z"/><path d="M0,1783.7c19.335,48.239 57.828,86.742 106.058,106.064l-47.003,0c-32.593,0 -59.055,-26.462 -59.055,-59.055l0,-47.009Zm236.22,0.006l0,47.003c0,32.593 -26.461,59.055 -59.055,59.055l-47.008,0c48.238,-19.335 86.741,-57.828 106.063,-106.058Zm-106.057,-130.163l47.002,0c32.594,0 59.055,26.462 59.055,59.055l0,47.009c-19.335,-48.239 -57.827,-86.741 -106.057,-106.064Zm-24.099,0c-48.239,19.335 -86.742,57.828 -106.064,106.058l0,-47.003c0,-32.593 26.462,-59.055 59.055,-59.055l47.009,0Z"/><path d="M708.661,3129.92c0,-32.593 -26.461,-59.055 -59.055,-59.055l-590.551,0c-32.593,0 -59.055,26.462 -59.055,59.055l0,118.11c0,32.594 26.462,59.056 59.055,59.056l590.551,0c32.594,0 59.055,-26.462 59.055,-59.056l0,-118.11Z"/><path d="M708.661,3129.92c0,-32.593 -26.461,-59.055 -59.055,-59.055l-590.551,0c-32.593,0 -59.055,26.462 -59.055,59.055l0,118.11c0,32.594 26.462,59.056 59.055,59.056l590.551,0c32.594,0 59.055,-26.462 59.055,-59.056l0,-118.11Z"/><path d="M1653.54,3129.92c0,-32.593 -26.461,-59.055 -59.055,-59.055l-590.551,0c-32.593,0 -59.055,26.462 -59.055,59.055l0,118.11c0,32.594 26.462,59.056 59.055,59.056l590.551,0c32.594,0 59.055,-26.462 59.055,-59.056l0,-118.11Z"/><path d="M1653.54,3129.92c0,-32.593 -26.461,-59.055 -59.055,-59.055l-590.551,0c-32.593,0 -59.055,26.462 -59.055,59.055l0,118.11c0,32.594 26.462,59.056 59.055,59.056l590.551,0c32.594,0 59.055,-26.462 59.055,-59.056l0,-118.11Z"/><path d="M1417.32,2893.7c0,-32.594 -26.462,-59.055 -59.055,-59.055l-118.111,0c-32.593,0 -59.055,26.461 -59.055,59.055l0,354.33c0,32.594 26.462,59.056 59.055,59.056l118.111,0c32.593,0 59.055,-26.462 59.055,-59.056l0,-354.33Z"/><path d="M1417.32,2893.7c0,-32.594 -26.462,-59.055 -59.055,-59.055l-118.111,0c-32.593,0 -59.055,26.461 -59.055,59.055l0,354.33c0,32.594 26.462,59.056 59.055,59.056l118.111,0c32.593,0 59.055,-26.462 59.055,-59.056l0,-354.33Zm-124.68,174.98l-5.538,2.185l5.538,2.185l6.57,2.225l6.569,-2.225l5.538,-2.185l-5.538,-2.185l-6.569,-2.225l-6.57,2.225Z"/><path d="M3307.09,1476.38c0,-32.593 -26.462,-59.055 -59.056,-59.055l-354.33,0c-32.594,0 -59.055,26.462 -59.055,59.055l0,118.11c0,32.594 26.461,59.055 59.055,59.055l354.33,0c32.594,0 59.056,-26.461 59.056,-59.055l0,-118.11Z"/><path d="M3307.09,1476.38c0,-32.593 -26.462,-59.055 -59.056,-59.055l-354.33,0c-32.594,0 -59.055,26.462 -59.055,59.055l0,118.11c0,32.594 26.461,59.055 59.055,59.055l354.33,0c32.594,0 59.056,-26.461 59.056,-59.055l0,-118.11Zm-238.406,52.485l-2.225,6.57l2.225,6.57l2.185,5.538l2.185,-5.538l2.225,-6.57l-2.225,-6.57l-2.185,-5.538l-2.185,5.538Z"/><path d="M2598.43,1476.38c0,-32.593 -26.462,-59.055 -59.055,-59.055l-118.11,0c-32.594,0 -59.055,26.462 -59.055,59.055l0,118.11c0,32.594 26.461,59.055 59.055,59.055l118.11,0c32.593,0 59.055,-26.461 59.055,-59.055l0,-118.11Z"/><path d="M2362.2,1547.48c19.335,48.238 57.827,86.741 106.057,106.063l-47.002,0c-32.594,0 -59.055,-26.461 -59.055,-59.055l0,-47.008Zm236.22,0.006l0,47.002c0,32.594 -26.462,59.055 -59.055,59.055l-47.008,0c48.238,-19.335 86.741,-57.827 106.063,-106.057Zm-106.058,-130.163l47.003,0c32.593,0 59.055,26.462 59.055,59.055l0,47.008c-19.335,-48.238 -57.827,-86.741 -106.058,-106.063Zm-24.099,0c-48.238,19.335 -86.741,57.827 -106.063,106.058l0,-47.003c0,-32.593 26.461,-59.055 59.055,-59.055l47.008,0Z"/><path d="M1889.76,767.717c0,-32.594 -26.462,-59.056 -59.055,-59.056l-118.111,0c-32.593,0 -59.055,26.462 -59.055,59.056l0,590.551c0,32.593 26.462,59.055 59.055,59.055l118.111,0c32.593,0 59.055,-26.462 59.055,-59.055l0,-590.551Z"/><path d="M1889.76,767.717c0,-32.594 -26.462,-59.056 -59.055,-59.056l-118.111,0c-32.593,0 -59.055,26.462 -59.055,59.056l0,590.551c0,32.593 26.462,59.055 59.055,59.055l118.111,0c32.593,0 59.055,-26.462 59.055,-59.055l0,-590.551Z"/><path d="M2125.98,1240.16c0,-32.593 -26.461,-59.055 -59.055,-59.055l-354.331,0c-32.593,0 -59.055,26.462 -59.055,59.055l0,118.111c0,32.593 26.462,59.055 59.055,59.055l354.331,0c32.594,0 59.055,-26.462 59.055,-59.055l0,-118.111Z"/><path d="M2125.98,1240.16c0,-32.593 -26.461,-59.055 -59.055,-59.055l-354.331,0c-32.593,0 -59.055,26.462 -59.055,59.055l0,118.111c0,32.593 26.462,59.055 59.055,59.055l354.331,0c32.594,0 59.055,-26.462 59.055,-59.055l0,-118.111Zm-238.405,52.486l-2.225,6.57l2.225,6.569l2.185,5.538l2.185,-5.538l2.225,-6.569l-2.225,-6.57l-2.185,-5.538l-2.185,5.538Z"/><path d="M2834.65,1003.94c0,-32.593 -26.462,-59.055 -59.055,-59.055l-354.331,0c-32.594,0 -59.055,26.462 -59.055,59.055l0,118.11c0,32.594 26.461,59.055 59.055,59.055l354.331,0c32.593,0 59.055,-26.461 59.055,-59.055l0,-118.11Z"/><path d="M2834.65,1003.94c0,-32.593 -26.462,-59.055 -59.055,-59.055l-354.331,0c-32.594,0 -59.055,26.462 -59.055,59.055l0,118.11c0,32.594 26.461,59.055 59.055,59.055l354.331,0c32.593,0 59.055,-26.461 59.055,-59.055l0,-118.11Zm-238.406,52.485l-2.225,6.57l2.225,6.57l2.185,5.538l2.185,-5.538l2.225,-6.57l-2.225,-6.57l-2.185,-5.537l-2.185,5.537Z"/><path d="M2125.98,1240.16c0,-32.593 -26.461,-59.055 -59.055,-59.055l-118.11,0c-32.594,0 -59.055,26.462 -59.055,59.055l0,354.331c0,32.594 26.461,59.055 59.055,59.055l118.11,0c32.594,0 59.055,-26.461 59.055,-59.055l0,-354.331Z"/><path d="M2125.98,1240.16c0,-32.593 -26.461,-59.055 -59.055,-59.055l-118.11,0c-32.594,0 -59.055,26.462 -59.055,59.055l0,354.331c0,32.594 26.461,59.055 59.055,59.055l118.11,0c32.594,0 59.055,-26.461 59.055,-59.055l0,-354.331Zm-124.68,174.981l-5.538,2.185l5.538,2.185l6.57,2.225l6.57,-2.225l5.538,-2.185l-5.538,-2.185l-6.57,-2.225l-6.57,2.225Z"/><path d="M3307.09,59.055c0,-32.593 -26.462,-59.055 -59.056,-59.055l-118.11,0c-32.593,0 -59.055,26.462 -59.055,59.055l0,354.331c0,32.593 26.462,59.055 59.055,59.055l118.11,0c32.594,0 59.056,-26.462 59.056,-59.055l0,-354.331Z"/><path d="M3307.09,59.055c0,-32.593 -26.462,-59.055 -59.056,-59.055l-118.11,0c-32.593,0 -59.055,26.462 -59.055,59.055l0,354.331c0,32.593 26.462,59.055 59.055,59.055l118.11,0c32.594,0 59.056,-26.462 59.056,-59.055l0,-354.331Zm-124.68,174.98l-5.538,2.185l5.538,2.186l6.569,2.224l6.57,-2.224l5.538,-2.186l-5.538,-2.185l-6.57,-2.225l-6.569,2.225Z"/><path d="M3307.09,59.055c0,-32.593 -26.462,-59.055 -59.056,-59.055l-826.771,0c-32.594,0 -59.055,26.462 -59.055,59.055l0,118.11c0,32.594 26.461,59.055 59.055,59.055l826.771,0c32.594,0 59.056,-26.461 59.056,-59.055l0,-118.11Z"/><path d="M3307.09,59.055c0,-32.593 -26.462,-59.055 -59.056,-59.055l-826.771,0c-32.594,0 -59.055,26.462 -59.055,59.055l0,118.11c0,32.594 26.461,59.055 59.055,59.055l826.771,0c32.594,0 59.056,-26.461 59.056,-59.055l0,-118.11Z"/></svg>