<?xml version="1.0" encoding="UTF-8" standalone="no"?><!DOCTYPE svg PUBLIC "-//W3C//DTD SVG 1.1//EN" "http://www.w3.org/Graphics/SVG/1.1/DTD/svg11.dtd"><svg width="100%" height="100%" viewBox="0 0 438 438" version="1.1" xmlns="http://www.w3.org/2000/svg" xmlns:xlink="http://www.w3.org/1999/xlink" xml:space="preserve" xmlns:serif="http://www.serif.com/" style="fill-rule:evenodd;clip-rule:evenodd;stroke-linejoin:round;stroke-miterlimit:1.41421;"><path d="M218.659,0c120.681,0 218.659,97.978 218.659,218.659c0,120.681 -97.978,218.659 -218.659,218.659c-120.681,0 -218.659,-97.978 -218.659,-218.659c0,-120.681 97.978,-218.659 218.659,-218.659Zm-5.232,345.826c81.672,-0.001 138.099,-56.799 138.099,-129.932l0,-0.743c0,-73.133 -56.427,-129.189 -138.099,-129.19l-72.762,0c-15.963,0.001 -28.585,12.623 -28.585,28.586l0,122.453l57.17,0l0,-99.437l44.177,0c46.776,0 78.33,32.298 78.33,78.331l0,0.742c0,46.033 -31.554,77.588 -78.33,77.588l-44.122,0l0,0l-57.225,0l0,23.017c0,15.963 12.622,28.585 28.585,28.585l72.762,0Z" style="fill:#2196f3;"/></svg>