<?xml version="1.0" standalone="no"?>
<!DOCTYPE svg PUBLIC "-//W3C//DTD SVG 20010904//EN"
 "http://www.w3.org/TR/2001/REC-SVG-20010904/DTD/svg10.dtd">
<svg version="1.0" xmlns="http://www.w3.org/2000/svg"
 width="700.000000pt" height="700.000000pt" viewBox="0 0 700.000000 700.000000"
 preserveAspectRatio="xMidYMid meet">
<metadata>
Created by potrace 1.11, written by Peter Selinger 2001-2013
</metadata>
<g transform="translate(0.000000,700.000000) scale(0.100000,-0.100000)"
fill="#000000" stroke="none">
<path d="M3278 6995 c-2 -1 -42 -5 -89 -9 -47 -4 -95 -8 -105 -10 -10 -2 -48
-7 -84 -12 -36 -4 -67 -8 -70 -9 -3 -1 -25 -5 -50 -9 -187 -32 -411 -95 -614
-171 -144 -54 -403 -175 -501 -234 -27 -17 -57 -34 -65 -38 -18 -8 -162 -103
-240 -158 -185 -130 -431 -353 -585 -530 -33 -38 -68 -79 -78 -90 -23 -26
-144 -186 -184 -245 -224 -328 -401 -712 -498 -1085 -31 -119 -72 -328 -80
-405 -4 -30 -8 -66 -11 -80 -25 -147 -25 -658 0 -810 2 -14 8 -52 12 -85 4
-33 8 -62 9 -65 0 -3 4 -27 9 -53 10 -62 14 -85 23 -122 4 -16 7 -32 8 -35 1
-3 5 -21 9 -40 83 -368 268 -794 489 -1124 65 -97 199 -276 250 -334 221 -251
428 -438 668 -605 313 -217 671 -387 1034 -492 96 -28 242 -62 303 -71 20 -3
44 -7 52 -9 31 -9 229 -35 320 -42 168 -14 559 -7 690 12 14 2 50 7 80 10 30
4 64 9 75 11 11 2 34 7 50 10 443 79 848 234 1232 473 638 396 1135 992 1411
1691 43 108 109 317 133 418 12 48 23 96 26 107 9 37 21 100 27 139 4 21 8 48
11 60 2 12 7 44 11 71 3 28 7 61 9 75 26 190 26 661 0 810 -2 14 -6 45 -9 70
-21 183 -115 566 -175 715 -5 11 -32 79 -61 150 -111 273 -275 556 -464 800
-39 50 -73 92 -76 95 -3 3 -33 37 -66 75 -297 339 -670 624 -1074 822 -74 36
-148 71 -165 78 -16 7 -41 18 -55 24 -113 49 -418 148 -510 164 -14 3 -43 10
-65 15 -22 6 -56 14 -75 17 -19 3 -60 10 -90 15 -97 17 -176 27 -265 36 -55 5
-532 14 -537 9z m377 -1379 c44 -4 87 -9 95 -11 8 -2 42 -7 75 -11 89 -10 347
-76 458 -118 520 -196 909 -546 1136 -1019 45 -94 122 -306 135 -369 2 -13 11
-54 19 -93 52 -241 57 -569 13 -810 -8 -44 -17 -94 -20 -110 -8 -42 -65 -233
-80 -270 -8 -16 -28 -64 -45 -105 -234 -553 -755 -983 -1386 -1145 -145 -37
-155 -39 -260 -54 -158 -23 -259 -25 -920 -26 -560 0 -699 3 -740 14 -118 33
-226 114 -281 212 -50 87 -61 156 -63 386 l-2 211 853 0 c469 0 878 3 908 7
30 3 71 8 90 10 75 10 247 59 324 92 292 129 495 341 610 639 19 50 37 102 40
115 2 13 9 47 16 74 6 28 13 68 16 90 3 22 7 55 10 73 10 65 4 285 -10 367 -3
17 -8 48 -12 70 -12 81 -57 213 -104 310 -187 383 -546 615 -1007 651 -91 7
-804 6 -811 -1 -4 -4 -7 -361 -7 -793 l0 -787 -458 -2 -458 -2 3 1027 c2 742
6 1034 14 1052 7 14 20 45 30 70 23 56 27 61 95 131 74 75 164 119 269 131 51
6 1378 0 1455 -6z"/>
</g>
</svg>
