<?xml version="1.0" encoding="UTF-8" standalone="no"?>
<!DOCTYPE svg PUBLIC "-//W3C//DTD SVG 1.1//EN" "http://www.w3.org/Graphics/SVG/1.1/DTD/svg11.dtd">
<svg width="100%" height="100%" viewBox="0 0 136 122" version="1.1" xmlns="http://www.w3.org/2000/svg" xmlns:xlink="http://www.w3.org/1999/xlink" xml:space="preserve" xmlns:serif="http://www.serif.com/" style="fill-rule:evenodd;clip-rule:evenodd;stroke-linejoin:round;stroke-miterlimit:2;">
    <g id="Artboard1" transform="matrix(0.857712,0,0,0.897445,-56.7617,-40.6654)">
        <rect x="66.178" y="45.312" width="157.957" height="135.861" style="fill:none;"/>
        <g id="Layer-1" serif:id="Layer 1" transform="matrix(1.16589,0,0,1.11427,-33.9688,-20.7665)">
            <g transform="matrix(-0.561783,95.2573,-129.797,-0.765481,142.904,82.9032)">
                <path d="M-0.206,-0.09C-0.19,-0.009 -0.143,0.071 -0.074,0.134C0.003,0.205 0.101,0.251 0.21,0.266C0.243,0.27 0.279,0.272 0.317,0.274C0.465,0.282 0.556,0.293 0.556,0.382C0.556,0.392 0.564,0.401 0.577,0.406C0.59,0.41 0.605,0.409 0.616,0.403C0.832,0.282 0.856,0.076 0.855,-0.069L0.854,-0.101C0.854,-0.106 0.854,-0.111 0.854,-0.116C0.854,-0.183 0.849,-0.255 0.816,-0.318C0.758,-0.431 0.628,-0.525 0.485,-0.559C0.324,-0.597 0.162,-0.578 0.028,-0.506C-0.121,-0.426 -0.213,-0.289 -0.212,-0.149C-0.211,-0.13 -0.209,-0.11 -0.206,-0.09Z" style="fill:white;fill-rule:nonzero;"/>
            </g>
            <g transform="matrix(1,0,0,1,162.393,167.91)">
                <path d="M0,-108.596C-2.705,-108.596 -5.431,-108.413 -8.105,-108.052C-19.298,-106.54 -30.305,-101.883 -39.097,-94.94C-49.004,-87.117 -55.397,-77.059 -57.584,-65.851C-58.234,-62.519 -58.512,-58.834 -58.781,-55.27C-59.202,-49.691 -59.638,-43.923 -61.412,-40.153C-62.624,-37.577 -64.434,-35.861 -69.323,-35.861C-72.014,-35.861 -74.474,-34.339 -75.675,-31.93C-76.876,-29.521 -76.61,-26.641 -74.991,-24.493C-58.443,-2.539 -30.565,0 -11.035,0C-10.551,0 -10.069,-0.001 -9.595,-0.004C-9.255,-0.006 -8.905,-0.007 -8.546,-0.007C-8.012,-0.007 -7.458,-0.005 -6.885,-0.004C-6.259,-0.002 -5.612,0 -4.946,0C4.156,0 13.789,-0.451 22.569,-3.724C29.885,-6.453 36.851,-10.87 42.714,-16.498C49.052,-22.58 53.704,-29.756 56.169,-37.249C58.943,-45.684 59.639,-54.161 58.237,-62.447C56.927,-70.192 53.85,-77.451 49.093,-84.024C43.72,-91.447 36.37,-97.645 27.837,-101.948C19.213,-106.297 9.588,-108.596 0,-108.596M0,-101.499C31.977,-101.499 60.44,-72.95 49.427,-39.466C44.991,-25.978 32.635,-15.054 20.09,-10.375C11.908,-7.324 2.349,-7.096 -4.946,-7.096C-6.222,-7.096 -7.428,-7.103 -8.546,-7.103C-8.92,-7.103 -9.283,-7.102 -9.636,-7.1C-10.097,-7.097 -10.565,-7.096 -11.035,-7.096C-29.365,-7.096 -54.677,-9.333 -69.323,-28.764C-49.254,-28.764 -53.214,-51.192 -50.619,-64.492C-46.663,-84.761 -26.61,-98.391 -7.154,-101.019C-4.762,-101.342 -2.369,-101.499 0,-101.499" style="fill:rgb(61,61,61);fill-rule:nonzero;"/>
            </g>
            <g transform="matrix(0,-1,-1,0,146.449,94.9493)">
                <path d="M-6.814,-6.816C-10.578,-6.816 -13.629,-3.765 -13.629,-0.001C-13.629,3.762 -10.578,6.814 -6.814,6.814C-3.05,6.814 0,3.762 0,-0.001C0,-3.765 -3.05,-6.816 -6.814,-6.816" style="fill:rgb(61,61,61);fill-rule:nonzero;"/>
            </g>
            <g transform="matrix(0,-1,-1,0,178.287,94.9493)">
                <path d="M-6.814,-6.816C-10.578,-6.816 -13.629,-3.765 -13.629,-0.001C-13.629,3.762 -10.578,6.814 -6.814,6.814C-3.05,6.814 0,3.762 0,-0.001C0,-3.765 -3.05,-6.816 -6.814,-6.816" style="fill:rgb(61,61,61);fill-rule:nonzero;"/>
            </g>
            <g transform="matrix(1,0,0,1,162.125,116.3)">
                <path d="M0,22.007C-11.548,22.007 -21.95,14.436 -23.858,4.527C-24.228,2.602 -22.968,0.742 -21.044,0.372C-19.119,0 -17.259,1.261 -16.889,3.185C-15.768,9.012 -8.792,15.146 0.507,14.904C10.193,14.65 16.592,8.858 17.907,3.268C18.356,1.361 20.268,0.179 22.174,0.626C24.081,1.075 25.264,2.986 24.815,4.893C23.742,9.454 20.803,13.683 16.539,16.799C12.099,20.044 6.62,21.842 0.694,21.998C0.462,22.004 0.231,22.007 0,22.007" style="fill:rgb(61,61,61);fill-rule:nonzero;"/>
            </g>
            <g transform="matrix(0,1,1,0,127.86,153.03)">
                <path d="M14.072,-14.073C6.3,-14.073 0.001,-7.773 0.001,-0.001C0.001,7.771 6.3,14.072 14.072,14.072C21.844,14.072 28.144,7.771 28.144,-0.001C28.144,-7.773 21.844,-14.073 14.072,-14.073" style="fill:rgb(61,61,61);fill-rule:nonzero;"/>
            </g>
            <g transform="matrix(0,1,1,0,127.86,162.458)">
                <path d="M4.643,-4.645C2.079,-4.645 -0.001,-2.566 -0.001,-0.001C-0.001,2.565 2.079,4.643 4.643,4.643C7.208,4.643 9.288,2.565 9.288,-0.001C9.288,-2.566 7.208,-4.645 4.643,-4.645" style="fill:rgb(81,82,82);fill-rule:nonzero;"/>
            </g>
            <g transform="matrix(0,1,1,0,176.703,153.03)">
                <path d="M14.072,-14.073C6.3,-14.073 0.001,-7.773 0.001,-0.001C0.001,7.771 6.3,14.072 14.072,14.072C21.844,14.072 28.144,7.771 28.144,-0.001C28.144,-7.773 21.844,-14.073 14.072,-14.073" style="fill:rgb(61,61,61);fill-rule:nonzero;"/>
            </g>
            <g transform="matrix(0,1,1,0,176.703,162.458)">
                <path d="M4.643,-4.645C2.079,-4.645 -0.001,-2.566 -0.001,-0.001C-0.001,2.565 2.079,4.643 4.643,4.643C7.208,4.643 9.288,2.565 9.288,-0.001C9.288,-2.566 7.208,-4.645 4.643,-4.645" style="fill:rgb(81,82,82);fill-rule:nonzero;"/>
            </g>
        </g>
    </g>
</svg>
