<?xml version="1.0" encoding="UTF-8" standalone="no"?><!DOCTYPE svg PUBLIC "-//W3C//DTD SVG 1.1//EN" "http://www.w3.org/Graphics/SVG/1.1/DTD/svg11.dtd"><svg width="100%" height="100%" viewBox="0 0 3309 3307" version="1.1" xmlns="http://www.w3.org/2000/svg" xmlns:xlink="http://www.w3.org/1999/xlink" xml:space="preserve" xmlns:serif="http://www.serif.com/" style="fill-rule:evenodd;clip-rule:evenodd;stroke-linejoin:round;stroke-miterlimit:2;"><rect id="Artboard1" x="0" y="0" width="3308.95" height="3306.53" style="fill:none;"/><clipPath id="_clip1"><rect x="0" y="0" width="3308.95" height="3306.53"/></clipPath><g clip-path="url(#_clip1)"><circle cx="1653.54" cy="1653.54" r="1653.54" style="fill:url(#_Linear2);"/><path d="M1653.54,0c912.616,0 1653.54,740.928 1653.54,1653.54c0,912.616 -740.928,1653.54 -1653.54,1653.54c-912.615,0 -1653.54,-740.928 -1653.54,-1653.54c0,-912.615 740.928,-1653.54 1653.54,-1653.54Zm0,229.167c786.135,0 1424.38,638.241 1424.38,1424.38c0,786.135 -638.242,1424.38 -1424.38,1424.38c-786.135,0 -1424.38,-638.242 -1424.38,-1424.38c0,-786.135 638.241,-1424.38 1424.38,-1424.38Z" style="fill-opacity:0.03;"/><clipPath id="_clip3"><rect x="803.15" y="601.459" width="1683.67" height="1998.85"/></clipPath><g clip-path="url(#_clip3)"><path id="path4" d="M2451.53,2159.17c-30.229,69.834 -66.009,134.116 -107.466,193.216c-56.509,80.568 -102.777,136.337 -138.435,167.306c-55.275,50.834 -114.498,76.867 -177.917,78.348c-45.528,0 -100.433,-12.955 -164.345,-39.236c-64.121,-26.157 -123.049,-39.112 -176.93,-39.112c-56.509,0 -117.114,12.955 -181.939,39.112c-64.924,26.281 -117.225,39.976 -157.214,41.333c-60.815,2.591 -121.432,-24.183 -181.939,-80.445c-38.618,-33.683 -86.922,-91.426 -144.789,-173.228c-62.086,-87.355 -113.129,-188.652 -153.117,-304.137c-42.826,-124.74 -64.294,-245.531 -64.294,-362.472c0,-133.956 28.945,-249.491 86.922,-346.309c45.565,-77.768 106.183,-139.114 182.051,-184.148c75.867,-45.035 157.842,-67.984 246.122,-69.452c48.304,0 111.649,14.942 190.367,44.307c78.495,29.463 128.897,44.405 150.995,44.405c16.521,0 72.511,-17.471 167.429,-52.302c89.761,-32.301 165.517,-45.676 227.579,-40.408c168.17,13.572 294.513,79.866 378.536,199.3c-150.403,91.13 -224.802,218.769 -223.322,382.509c1.358,127.54 47.626,233.673 138.559,317.943c41.209,39.112 87.231,69.341 138.434,90.81c-11.104,32.202 -22.825,63.048 -35.287,92.66Zm-385.693,-1517.72c0,99.965 -36.521,193.303 -109.316,279.695c-87.848,102.703 -194.105,162.05 -309.332,152.685c-1.468,-11.992 -2.319,-24.614 -2.319,-37.878c0,-95.967 41.777,-198.67 115.967,-282.644c37.039,-42.517 84.146,-77.87 141.272,-106.071c57.003,-27.781 110.921,-43.145 161.631,-45.775c1.481,13.363 2.097,26.728 2.097,39.987l0,0.001Z" style="fill:#fff;fill-rule:nonzero;"/></g></g><defs><linearGradient id="_Linear2" x1="0" y1="0" x2="1" y2="0" gradientUnits="userSpaceOnUse" gradientTransform="matrix(2362.2,2362.2,-2362.2,2362.2,472.441,472.441)"><stop offset="0" style="stop-color:#40a6f5;stop-opacity:1"/><stop offset="1" style="stop-color:#2196f3;stop-opacity:1"/></linearGradient></defs></svg>