<?xml version="1.0" encoding="UTF-8" standalone="no"?><!DOCTYPE svg PUBLIC "-//W3C//DTD SVG 1.1//EN" "http://www.w3.org/Graphics/SVG/1.1/DTD/svg11.dtd"><svg width="100%" height="100%" viewBox="0 0 3309 3307" version="1.1" xmlns="http://www.w3.org/2000/svg" xmlns:xlink="http://www.w3.org/1999/xlink" xml:space="preserve" xmlns:serif="http://www.serif.com/" style="fill-rule:evenodd;clip-rule:evenodd;stroke-linejoin:round;stroke-miterlimit:2;"><rect id="Artboard1" x="0" y="0" width="3308.95" height="3306.53" style="fill:none;"/><clipPath id="_clip1"><rect x="0" y="0" width="3308.95" height="3306.53"/></clipPath><g clip-path="url(#_clip1)"><circle cx="1653.54" cy="1653.54" r="1653.54" style="fill:url(#_Linear2);"/><clipPath id="_clip3"><rect x="759.48" y="476.441" width="1788.13" height="2122.86"/></clipPath><g clip-path="url(#_clip3)"><path id="path4" d="M2510.13,2130.79c-32.104,74.167 -70.105,142.437 -114.133,205.204c-60.015,85.567 -109.154,144.795 -147.024,177.686c-58.704,53.987 -121.602,81.635 -188.955,83.208c-48.352,0 -106.664,-13.759 -174.541,-41.67c-68.099,-27.78 -130.683,-41.538 -187.906,-41.538c-60.015,0 -124.38,13.758 -193.227,41.538c-68.952,27.911 -124.498,42.456 -166.967,43.898c-64.588,2.751 -128.966,-25.684 -193.227,-85.436c-41.014,-35.774 -92.315,-97.099 -153.772,-183.976c-65.937,-92.774 -120.147,-200.355 -162.616,-323.006c-45.483,-132.478 -68.283,-260.763 -68.283,-384.959c0,-142.267 30.741,-264.97 92.315,-367.794c48.392,-82.593 112.77,-147.744 193.345,-195.573c80.574,-47.828 167.635,-72.201 261.392,-73.76c51.301,0 118.575,15.868 202.176,47.055c83.366,31.292 136.895,47.16 160.363,47.16c17.546,0 77.01,-18.555 177.817,-55.546c95.329,-34.306 175.786,-48.51 241.697,-42.915c178.603,14.414 312.785,84.82 402.021,211.664c-159.734,96.784 -238.749,232.341 -237.176,406.24c1.441,135.453 50.58,248.17 147.154,337.669c43.766,41.538 92.643,73.642 147.023,96.443c-11.793,34.2 -24.242,66.959 -37.476,98.408Zm-409.621,-1611.88c0,106.167 -38.787,205.295 -116.099,297.047c-93.298,109.075 -206.147,172.104 -328.522,162.158c-1.559,-12.736 -2.464,-26.141 -2.464,-40.228c0,-101.92 44.369,-210.995 123.162,-300.179c39.337,-45.155 89.367,-82.701 150.037,-112.652c60.539,-29.504 117.802,-45.821 171.658,-48.615c1.573,14.193 2.228,28.387 2.228,42.468l0,0.001Z" style="fill:#fff;fill-rule:nonzero;"/></g></g><defs><linearGradient id="_Linear2" x1="0" y1="0" x2="1" y2="0" gradientUnits="userSpaceOnUse" gradientTransform="matrix(3307.09,0,0,3307.09,0,1653.54)"><stop offset="0" style="stop-color:#2196f3;stop-opacity:1"/><stop offset="1" style="stop-color:#40a6f5;stop-opacity:1"/></linearGradient></defs></svg>