<?xml version="1.0" encoding="UTF-8" standalone="no"?><!DOCTYPE svg PUBLIC "-//W3C//DTD SVG 1.1//EN" "http://www.w3.org/Graphics/SVG/1.1/DTD/svg11.dtd"><svg width="100%" height="100%" viewBox="0 0 2363 2363" version="1.1" xmlns="http://www.w3.org/2000/svg" xmlns:xlink="http://www.w3.org/1999/xlink" xml:space="preserve" xmlns:serif="http://www.serif.com/" style="fill-rule:evenodd;clip-rule:evenodd;stroke-linejoin:round;stroke-miterlimit:2;"><path d="M1181.1,0c651.869,0 1181.1,529.234 1181.1,1181.1c0,651.869 -529.234,1181.1 -1181.1,1181.1c-651.868,0 -1181.1,-529.234 -1181.1,-1181.1c0,-651.868 529.234,-1181.1 1181.1,-1181.1Zm0,229.167c525.388,0 951.936,426.548 951.936,951.935c0,525.388 -426.548,951.936 -951.936,951.936c-525.387,0 -951.935,-426.548 -951.935,-951.936c0,-525.387 426.548,-951.935 951.935,-951.935Z" style="fill:#41a6f5;"/><g><path d="M1008.11,863.021c46.094,-46.094 46.094,-120.939 0,-167.033c-46.094,-46.094 -120.939,-46.094 -167.033,0l-334.067,334.066c-46.094,46.094 -46.094,120.939 0,167.033c46.095,46.094 120.94,46.094 167.034,0l334.066,-334.066Z" style="fill:#41a6f5;"/><path d="M1008.11,863.021c46.094,-46.094 46.094,-120.939 0,-167.033c-46.094,-46.094 -120.939,-46.094 -167.033,0l-334.067,334.066c-46.094,46.094 -46.094,120.939 0,167.033c46.095,46.094 120.94,46.094 167.034,0l334.066,-334.066Z" style="fill:#67747e;"/><path d="M841.078,1197.09c46.094,46.094 120.939,46.094 167.033,0c46.094,-46.094 46.094,-120.939 0,-167.033l-334.066,-334.066c-46.094,-46.094 -120.939,-46.094 -167.034,0c-46.094,46.094 -46.094,120.939 0,167.033l334.067,334.066Z" style="fill:#41a6f5;"/><path d="M841.078,1197.09c46.094,46.094 120.939,46.094 167.033,0c46.094,-46.094 46.094,-120.939 0,-167.033l-334.066,-334.066c-46.094,-46.094 -120.939,-46.094 -167.034,0c-46.094,46.094 -46.094,120.939 0,167.033l334.067,334.066Z" style="fill:#67747e;"/></g><g><path d="M1855.19,883.332c46.094,-46.094 46.094,-120.939 0,-167.033c-46.094,-46.094 -120.939,-46.094 -167.033,0l-334.066,334.066c-46.094,46.094 -46.094,120.939 0,167.033c46.094,46.094 120.939,46.094 167.033,0l334.066,-334.066Z" style="fill:#41a6f5;"/><path d="M1855.19,883.332c46.094,-46.094 46.094,-120.939 0,-167.033c-46.094,-46.094 -120.939,-46.094 -167.033,0l-334.066,334.066c-46.094,46.094 -46.094,120.939 0,167.033c46.094,46.094 120.939,46.094 167.033,0l334.066,-334.066Z" style="fill:#67747e;"/><path d="M1688.16,1217.4c46.094,46.094 120.939,46.094 167.033,0c46.094,-46.094 46.094,-120.939 0,-167.033l-334.066,-334.066c-46.094,-46.094 -120.939,-46.094 -167.033,0c-46.094,46.094 -46.094,120.939 0,167.033l334.066,334.066Z" style="fill:#41a6f5;"/><path d="M1688.16,1217.4c46.094,46.094 120.939,46.094 167.033,0c46.094,-46.094 46.094,-120.939 0,-167.033l-334.066,-334.066c-46.094,-46.094 -120.939,-46.094 -167.033,0c-46.094,46.094 -46.094,120.939 0,167.033l334.066,334.066Z" style="fill:#67747e;"/></g><path d="M2020.38,1976.74c25.993,-25.993 25.993,-68.2 0,-94.194l-1490.17,-1490.17c-25.994,-25.993 -68.2,-25.993 -94.194,0l-94.194,94.194c-25.993,25.994 -25.993,68.201 0,94.194l1490.17,1490.17c25.993,25.993 68.2,25.993 94.194,0l94.194,-94.194Z" style="fill:#41a6f5;"/></svg>