<?xml version="1.0" encoding="UTF-8" standalone="no"?><!DOCTYPE svg PUBLIC "-//W3C//DTD SVG 1.1//EN" "http://www.w3.org/Graphics/SVG/1.1/DTD/svg11.dtd"><svg width="100%" height="100%" viewBox="0 0 3308 3308" version="1.1" xmlns="http://www.w3.org/2000/svg" xmlns:xlink="http://www.w3.org/1999/xlink" xml:space="preserve" xmlns:serif="http://www.serif.com/" style="fill-rule:evenodd;clip-rule:evenodd;stroke-linecap:round;stroke-linejoin:round;stroke-miterlimit:1.5;"><circle cx="1653.54" cy="1653.54" r="1653.54" style="fill:url(#_Linear1);"/><path d="M1653.54,0c912.616,0 1653.54,740.928 1653.54,1653.54c0,912.616 -740.928,1653.54 -1653.54,1653.54c-912.615,0 -1653.54,-740.928 -1653.54,-1653.54c0,-912.615 740.928,-1653.54 1653.54,-1653.54Zm0,229.167c786.135,0 1424.38,638.241 1424.38,1424.38c0,786.135 -638.242,1424.38 -1424.38,1424.38c-786.135,0 -1424.38,-638.242 -1424.38,-1424.38c0,-786.135 638.241,-1424.38 1424.38,-1424.38Z" style="fill-opacity:0.03;"/><path d="M2021.02,1243.53c368.752,368.752 503.473,832.792 300.66,1035.61c-202.814,202.814 -666.853,68.093 -1035.61,-300.659c-368.752,-368.753 -503.473,-832.792 -300.659,-1035.61c202.814,-202.814 666.853,-68.093 1035.61,300.659Z" style="fill:none;stroke:#fff;stroke-width:270.83px;"/><path d="M1286.07,1292.72c368.753,-368.752 832.792,-503.473 1035.61,-300.659c202.813,202.813 68.092,666.853 -300.66,1035.61c-368.752,368.752 -832.791,503.473 -1035.61,300.659c-202.814,-202.813 -68.093,-666.852 300.659,-1035.61Z" style="fill:none;stroke:#fff;stroke-width:270.83px;"/><defs><linearGradient id="_Linear1" x1="0" y1="0" x2="1" y2="0" gradientUnits="userSpaceOnUse" gradientTransform="matrix(2362.2,2362.2,-2362.2,2362.2,472.441,472.441)"><stop offset="0" style="stop-color:#40a6f5;stop-opacity:1"/><stop offset="1" style="stop-color:#2196f3;stop-opacity:1"/></linearGradient></defs></svg>