<?xml version="1.0" encoding="utf-8"?>
<!-- Generator: Adobe Illustrator 23.0.6, SVG Export Plug-In . SVG Version: 6.00 Build 0)  -->
<svg version="1.1" id="Vrstva_1" xmlns="http://www.w3.org/2000/svg" xmlns:xlink="http://www.w3.org/1999/xlink" x="0px" y="0px"
	 viewBox="0 0 135 100" style="enable-background:new 0 0 135 100;" xml:space="preserve">
<style type="text/css">
	.st0{fill:#FFFFFF;}
	.st1{fill:#78BE14;}
</style>
<rect y="0" class="st0" width="135" height="100"/>
<g>
	<path class="st1" d="M29.37,58.92c0-3.75,3.03-6.79,6.78-6.79c3.74,0,6.78,3.04,6.78,6.79c0,3.74-3.03,6.78-6.78,6.78
		S29.37,62.66,29.37,58.92z"/>
	<path class="st1" d="M37.5,77.9c0-3.75,3.03-6.77,6.78-6.77c3.74,0,6.78,3.03,6.78,6.77c0,3.75-3.04,6.78-6.78,6.78
		S37.5,81.65,37.5,77.9z"/>
	<path class="st1" d="M13.1,20.95c0-3.75,3.04-6.78,6.78-6.78s6.78,3.03,6.78,6.78s-3.04,6.78-6.78,6.78
		C16.13,27.73,13.1,24.7,13.1,20.95z"/>
	<path class="st1" d="M21.23,39.93c0-3.74,3.04-6.77,6.78-6.77s6.78,3.04,6.78,6.77c0,3.75-3.04,6.78-6.78,6.78
		C24.27,46.72,21.23,43.68,21.23,39.93z"/>
	<g>
		<g>
			<path d="M44.99,35.96v4.54c0,1.27,0.79,1.97,1.89,1.97c1.12,0,1.91-0.7,1.91-1.97v-4.54h1.98v4.39c0,2.29-1.55,3.8-3.89,3.8
				c-2.32,0-3.87-1.5-3.87-3.8v-4.39H44.99z"/>
			<path d="M52.55,35.96h1.98v1.05c0.56-0.76,1.46-1.21,2.54-1.21c1.91,0,3.24,1.36,3.24,3.28v4.9h-1.98v-4.65
				c0-1.1-0.79-1.87-1.91-1.87c-1.1,0-1.89,0.77-1.89,1.89v4.63h-1.98C52.55,43.98,52.55,35.96,52.55,35.96z"/>
			<path d="M63.09,32.49c0.67,0,1.18,0.51,1.18,1.18c0,0.65-0.51,1.16-1.18,1.16c-0.65,0-1.16-0.51-1.16-1.16
				C61.92,33,62.43,32.49,63.09,32.49z M62.09,35.96h1.98v8.03h-1.98V35.96z"/>
			<path d="M65.08,35.96h2.23l2.25,5.89l2.25-5.89h2.11l-3.32,8.03h-2.2L65.08,35.96z"/>
			<path d="M78.47,35.8c2.6,0,4.51,2,4.18,4.76h-6.37c0.15,1.18,1.07,2,2.18,2c0.95,0,1.55-0.5,1.89-1.18h2.09
				c-0.54,1.67-2.03,2.76-4,2.76c-2.45,0-4.23-1.77-4.23-4.17C74.23,37.55,76.02,35.8,78.47,35.8z M80.61,39.17
				c-0.22-0.94-1.02-1.78-2.14-1.78s-1.92,0.82-2.14,1.78H80.61z"/>
			<path d="M84.25,35.96h1.98v1.07c0.62-0.91,1.69-1.38,2.79-1.16v1.86c-1.63-0.3-2.79,0.45-2.79,1.78v4.48h-1.98V35.96z"/>
			<path d="M89.79,42.42L94,37.63h-4.21v-1.67h6.82v1.55l-4.21,4.8h4.21v1.67h-6.82V42.42z"/>
			<path d="M99.07,32.49c0.67,0,1.18,0.51,1.18,1.18c0,0.65-0.51,1.16-1.18,1.16c-0.65,0-1.16-0.51-1.16-1.16
				C97.91,33,98.42,32.49,99.07,32.49z M98.08,35.96h1.98v8.03h-1.98V35.96z"/>
			<path d="M102.82,33.76h1.98v2.2h2.48v1.63h-2.48v3.38c0,1.18,0.7,1.8,2.48,1.3v1.66c-3.16,0.74-4.46-0.73-4.46-2.94V37.6h-1.44
				v-1.63h1.44C102.82,35.97,102.82,33.76,102.82,33.76z"/>
			<path d="M111.96,39.26c0.48,0,1.08,0.06,1.78,0.17v-0.56c0-0.95-0.62-1.5-1.6-1.5c-0.96,0-1.57,0.45-1.63,1.27h-1.98
				c0.08-1.61,1.27-2.84,3.59-2.84c2.25,0,3.59,1.18,3.59,3.22v4.96h-1.98v-1.13c-0.68,0.84-1.67,1.29-2.8,1.29
				c-1.5,0-2.66-0.79-2.66-2.31C108.27,40.22,109.56,39.26,111.96,39.26z M111.51,42.65c1.27,0,2.12-0.96,2.23-1.84
				c-0.56-0.09-1.13-0.16-1.64-0.16c-1.32,0-1.83,0.42-1.83,1.05C110.27,42.36,110.75,42.65,111.51,42.65z"/>
		</g>
	</g>
	<g>
		<g>
			<path d="M50.36,54.94h2.23l2.25,5.89l2.25-5.89h2.11l-3.32,8.03h-2.2L50.36,54.94z"/>
			<path d="M64.54,52.12h5.58c1.87,0,3.16,1.29,3.16,2.96c0,0.99-0.48,1.86-1.26,2.37c0.98,0.48,1.57,1.43,1.57,2.56
				c0,1.66-1.29,2.96-3.16,2.96h-5.89V52.12z M69.67,56.64c0.87,0,1.43-0.59,1.43-1.36s-0.56-1.38-1.43-1.38h-3.04v2.74H69.67z
				 M69.98,61.18c0.87,0,1.43-0.6,1.43-1.38c0-0.77-0.56-1.38-1.43-1.38h-3.35v2.76C66.63,61.18,69.98,61.18,69.98,61.18z"/>
			<path d="M74.99,54.94h1.98v1.07c0.62-0.91,1.69-1.38,2.79-1.16v1.86c-1.63-0.29-2.79,0.45-2.79,1.78v4.48h-1.98V54.94z"/>
			<path d="M81.08,54.94h1.98v1.05c0.56-0.76,1.46-1.21,2.54-1.21c1.91,0,3.24,1.36,3.24,3.28v4.9h-1.98v-4.65
				c0-1.1-0.79-1.87-1.91-1.87c-1.1,0-1.89,0.77-1.89,1.89v4.63h-1.98C81.08,62.96,81.08,54.94,81.08,54.94z"/>
			<path d="M94.56,54.78c2.6,0,4.51,2,4.18,4.76h-6.37c0.15,1.18,1.07,2,2.18,2c0.94,0,1.55-0.5,1.89-1.18h2.09
				c-0.54,1.67-2.03,2.76-4,2.76c-2.45,0-4.23-1.77-4.23-4.17C90.31,56.54,92.11,54.78,94.56,54.78z M91.74,51.3h1.72l1.1,1.4
				l1.1-1.4h1.69l-1.69,2.63h-2.22L91.74,51.3z M96.7,58.15c-0.22-0.95-1.02-1.78-2.14-1.78s-1.92,0.82-2.14,1.78H96.7z"/>
		</g>
	</g>
	<g>
		<g>
			<path d="M35.68,14.18h2.06l3.7,5.19l3.64-5.19h2.01v10.85h-2.17v-7.2l-3.53,4.99l-3.55-4.94v7.16h-2.17V14.18H35.68z"/>
			<path d="M52.89,16.84c2.6,0,4.51,2,4.18,4.76H50.7c0.15,1.18,1.07,2,2.18,2c0.95,0,1.55-0.5,1.89-1.18h2.09
				c-0.54,1.67-2.03,2.76-4,2.76c-2.45,0-4.23-1.77-4.23-4.17C48.65,18.6,50.44,16.84,52.89,16.84z M55.03,20.21
				c-0.22-0.94-1.02-1.78-2.14-1.78s-1.92,0.82-2.14,1.78H55.03z"/>
			<path d="M58.67,17h1.98v1.05c0.56-0.76,1.46-1.21,2.54-1.21c1.91,0,3.24,1.36,3.24,3.28v4.9h-1.98v-4.65
				c0-1.1-0.79-1.87-1.91-1.87c-1.1,0-1.89,0.77-1.89,1.89v4.63h-1.98V17z"/>
			<path d="M74.39,23.82c-0.67,0.85-1.64,1.36-2.79,1.36c-2.12,0-3.69-1.77-3.69-4.17c0-2.42,1.56-4.17,3.76-4.17
				c1.13,0,2.09,0.48,2.71,1.3v-4.59h1.98v11.47h-1.98v-1.2H74.39z M72.19,23.52c1.26,0,2.2-1.05,2.2-2.51
				c0-1.47-0.95-2.51-2.2-2.51s-2.2,1.04-2.2,2.51C69.99,22.47,70.93,23.52,72.19,23.52z"/>
			<path d="M82.16,16.84c2.6,0,4.51,2,4.18,4.76h-6.37c0.15,1.18,1.07,2,2.18,2c0.95,0,1.55-0.5,1.89-1.18h2.09
				c-0.54,1.67-2.03,2.76-4,2.76c-2.45,0-4.23-1.77-4.23-4.17C77.92,18.6,79.72,16.84,82.16,16.84z M84.3,20.21
				c-0.22-0.94-1.02-1.78-2.14-1.78s-1.92,0.82-2.14,1.78H84.3z"/>
			<path d="M87.95,13.56h1.98v11.47h-1.98V13.56z"/>
			<path d="M95.76,16.84c2.48,0,4.28,1.75,4.28,4.17c0,2.4-1.8,4.17-4.28,4.17c-2.46,0-4.28-1.77-4.28-4.17
				C91.48,18.6,93.29,16.84,95.76,16.84z M95.76,23.52c1.26,0,2.2-1.05,2.2-2.51c0-1.47-0.95-2.51-2.2-2.51s-2.2,1.04-2.2,2.51
				C93.55,22.47,94.5,23.52,95.76,23.52z"/>
			<path d="M100.34,17h2.23l2.25,5.89l2.25-5.89h2.11l-3.32,8.03h-2.2L100.34,17z"/>
			<path d="M112.97,20.3c0.48,0,1.08,0.06,1.78,0.17v-0.56c0-0.94-0.62-1.5-1.6-1.5c-0.96,0-1.56,0.45-1.63,1.27h-1.98
				c0.08-1.61,1.27-2.84,3.59-2.84c2.25,0,3.59,1.18,3.59,3.22v4.96h-1.98v-1.13c-0.68,0.84-1.67,1.28-2.8,1.28
				c-1.5,0-2.66-0.79-2.66-2.31C109.28,21.26,110.57,20.3,112.97,20.3z M112.52,23.69c1.27,0,2.12-0.96,2.23-1.84
				c-0.56-0.09-1.13-0.16-1.64-0.16c-1.32,0-1.83,0.42-1.83,1.05C111.28,23.4,111.76,23.69,112.52,23.69z"/>
		</g>
	</g>
</g>
</svg>
