<?xml version="1.0" encoding="utf-8"?>
<!-- Generator: Adobe Illustrator 23.0.6, SVG Export Plug-In . SVG Version: 6.00 Build 0)  -->
<svg version="1.1" id="Vrstva_1" xmlns="http://www.w3.org/2000/svg" xmlns:xlink="http://www.w3.org/1999/xlink" x="0px" y="0px"
	 viewBox="0 0 190 100" style="enable-background:new 0 0 190 100;" xml:space="preserve">
<style type="text/css">
	.st0{fill:#FFFFFF;}
	.st1{fill:#CE9700;}
</style>
<rect x="0.1" class="st0" width="190" height="100"/>
<g>
	<path class="st1" d="M29.31,58.85c0-3.75,3.04-6.8,6.79-6.8s6.79,3.05,6.79,6.8s-3.04,6.79-6.79,6.79S29.31,62.6,29.31,58.85z"/>
	<path class="st1" d="M37.46,77.87c0-3.76,3.04-6.79,6.79-6.79s6.8,3.04,6.8,6.79s-3.04,6.79-6.8,6.79
		C40.5,84.66,37.46,81.63,37.46,77.87z"/>
	<path class="st1" d="M13,20.79c0-3.75,3.04-6.79,6.79-6.79s6.79,3.04,6.79,6.79c0,3.76-3.04,6.8-6.79,6.8S13,24.55,13,20.79z"/>
	<path class="st1" d="M21.15,39.82c0-3.75,3.04-6.79,6.79-6.8c3.75,0,6.79,3.04,6.79,6.8c0,3.75-3.04,6.79-6.79,6.79
		C24.2,46.62,21.15,43.57,21.15,39.82z"/>
	<g>
		<path class="st1" d="M46.46,33.01h2.55l4.41,10.87h-2.38l-0.95-2.45h-4.83l-0.95,2.45h-2.27L46.46,33.01z M49.44,39.56l-1.77-4.5
			l-1.74,4.5H49.44z"/>
		<path class="st1" d="M56.03,44.04c0.12,0.85,0.92,1.49,1.99,1.49c1.37,0,2.24-0.82,2.24-2.16v-0.96c-0.67,0.82-1.65,1.32-2.8,1.32
			c-2.13,0-3.7-1.71-3.7-4.02c0-2.33,1.57-4.02,3.77-4.02c1.13,0,2.1,0.47,2.72,1.26v-1.1h1.99v7.32c0,2.41-1.77,3.99-4.22,3.99
			c-2.11,0-3.8-1.27-4.02-3.11h2.03V44.04z M58.05,42.06c1.26,0,2.21-0.99,2.21-2.36c0-1.38-0.95-2.36-2.21-2.36
			s-2.21,0.98-2.21,2.36C55.84,41.07,56.79,42.06,58.05,42.06z"/>
		<path class="st1" d="M64.1,35.84h1.99v1.07c0.62-0.92,1.69-1.38,2.8-1.16v1.86c-1.63-0.29-2.8,0.45-2.8,1.79v4.49H64.1V35.84z"/>
		<path class="st1" d="M73.52,35.68c2.48,0,4.29,1.76,4.29,4.18c0,2.41-1.8,4.18-4.29,4.18c-2.47,0-4.29-1.77-4.29-4.18
			C69.23,37.44,71.05,35.68,73.52,35.68z M73.52,42.37c1.26,0,2.21-1.06,2.21-2.51c0-1.48-0.95-2.52-2.21-2.52s-2.2,1.04-2.2,2.52
			C71.31,41.32,72.26,42.37,73.52,42.37z"/>
		<path class="st1" d="M79.36,35.84h1.99v1.06c0.56-0.76,1.46-1.21,2.55-1.21c1.91,0,3.25,1.37,3.25,3.29v4.91h-1.99v-4.66
			c0-1.1-0.79-1.88-1.91-1.88c-1.1,0-1.89,0.78-1.89,1.9v4.64h-1.99v-8.05H79.36z"/>
		<path class="st1" d="M92.9,35.68c2.48,0,4.29,1.76,4.29,4.18c0,2.41-1.8,4.18-4.29,4.18c-2.47,0-4.29-1.77-4.29-4.18
			C88.61,37.44,90.43,35.68,92.9,35.68z M92.9,42.37c1.26,0,2.2-1.06,2.2-2.51c0-1.48-0.95-2.52-2.2-2.52
			c-1.26,0-2.21,1.04-2.21,2.52C90.69,41.32,91.64,42.37,92.9,42.37z"/>
		<path class="st1" d="M98.74,35.84h1.99v0.95c0.5-0.68,1.3-1.1,2.28-1.1c1.06,0,1.93,0.48,2.41,1.29c0.53-0.79,1.44-1.29,2.56-1.29
			c1.8,0,3.07,1.24,3.07,3v5.2h-1.99v-4.97c0-0.92-0.64-1.57-1.58-1.57c-0.93,0-1.58,0.65-1.58,1.58v4.95h-1.99v-4.97
			c0-0.92-0.65-1.57-1.6-1.57c-0.92,0-1.58,0.65-1.58,1.58v4.95h-1.99V35.84z"/>
		<path class="st1" d="M113.84,32.36c0.67,0,1.18,0.51,1.18,1.18c0,0.65-0.51,1.16-1.18,1.16c-0.65,0-1.16-0.51-1.16-1.16
			C112.67,32.87,113.18,32.36,113.84,32.36z M112.84,35.84h1.99v8.04h-1.99V35.84z"/>
		<path class="st1" d="M120.61,35.68c2.1,0,3.73,1.32,4.01,3.12h-2.08c-0.31-0.9-0.96-1.46-1.93-1.46c-1.23,0-2.14,1.04-2.14,2.52
			c0,1.46,0.92,2.51,2.14,2.51c0.96,0,1.62-0.57,1.93-1.47h2.08c-0.28,1.82-1.91,3.14-4.01,3.14c-2.44,0-4.22-1.77-4.22-4.18
			C116.38,37.44,118.17,35.68,120.61,35.68z"/>
		<path class="st1" d="M126.17,32.39h1.99v7.07l3.26-3.62h2.45l-3.26,3.46l3.57,4.58h-2.5l-2.44-3.11l-1.09,1.13v1.97h-1.99
			L126.17,32.39L126.17,32.39z"/>
		<path class="st1" d="M138.19,39.15c0.48,0,1.09,0.06,1.79,0.17v-0.56c0-0.95-0.62-1.51-1.6-1.51c-0.96,0-1.57,0.45-1.63,1.27
			h-1.99c0.08-1.62,1.27-2.84,3.6-2.84c2.25,0,3.6,1.18,3.6,3.23v4.97h-1.99v-1.13c-0.68,0.84-1.68,1.29-2.81,1.29
			c-1.51,0-2.67-0.79-2.67-2.31C134.49,40.11,135.78,39.15,138.19,39.15z M137.74,42.55c1.27,0,2.13-0.96,2.24-1.85
			c-0.56-0.09-1.13-0.15-1.65-0.15c-1.32,0-1.83,0.42-1.83,1.06C136.5,42.25,136.98,42.55,137.74,42.55z M138.68,32.19h2.33l-2,2.64
			h-1.76L138.68,32.19z"/>
	</g>
	<g>
		<path class="st1" d="M52.18,56.49h-1.6v-1.63h1.6v-0.47c0-2.22,0.99-3.48,4.16-3.06V53c-1.79-0.26-2.17,0.23-2.17,1.41v0.45h2.17
			v1.63h-2.17v6.41h-1.99C52.18,62.9,52.18,56.49,52.18,56.49z"/>
		<path class="st1" d="M60.51,58.17c0.48,0,1.09,0.06,1.79,0.17v-0.56c0-0.95-0.62-1.51-1.6-1.51c-0.96,0-1.57,0.45-1.63,1.27h-1.99
			c0.08-1.62,1.27-2.84,3.6-2.84c2.25,0,3.6,1.18,3.6,3.23v4.97h-1.99v-1.13c-0.68,0.84-1.68,1.29-2.81,1.29
			c-1.51,0-2.67-0.79-2.67-2.31C56.81,59.13,58.1,58.17,60.51,58.17z M60.05,61.57c1.27,0,2.13-0.96,2.24-1.85
			c-0.56-0.09-1.13-0.15-1.65-0.15c-1.32,0-1.83,0.42-1.83,1.06C58.81,61.27,59.29,61.57,60.05,61.57z"/>
		<path class="st1" d="M66.07,51.41h1.99v7.07l3.26-3.62h2.45l-3.26,3.46l3.57,4.58h-2.5l-2.44-3.11l-1.09,1.13v1.97h-1.99V51.41
			H66.07z"/>
		<path class="st1" d="M76.61,54.86v4.55c0,1.27,0.79,1.97,1.89,1.97c1.12,0,1.91-0.7,1.91-1.97v-4.55h1.99v4.4
			c0,2.3-1.55,3.81-3.9,3.81c-2.33,0-3.88-1.51-3.88-3.81v-4.4H76.61z"/>
		<path class="st1" d="M84.19,51.41h1.99V62.9h-1.99V51.41z"/>
		<path class="st1" d="M88.94,52.65h1.99v2.21h2.48v1.63h-2.48v3.39c0,1.18,0.7,1.8,2.48,1.3v1.66c-3.17,0.74-4.47-0.73-4.47-2.95
			v-3.4H87.5v-1.63h1.44V52.65z"/>
		<path class="st1" d="M98.11,58.17c0.48,0,1.09,0.06,1.79,0.17v-0.56c0-0.95-0.62-1.51-1.6-1.51c-0.96,0-1.57,0.45-1.63,1.27h-1.99
			c0.08-1.62,1.27-2.84,3.6-2.84c2.25,0,3.6,1.18,3.6,3.23v4.97h-1.99v-1.13c-0.68,0.84-1.68,1.29-2.81,1.29
			c-1.51,0-2.67-0.79-2.67-2.31C94.41,59.13,95.7,58.17,98.11,58.17z M97.66,61.57c1.27,0,2.13-0.96,2.24-1.85
			c-0.56-0.09-1.13-0.15-1.65-0.15c-1.32,0-1.83,0.42-1.83,1.06C96.41,61.27,96.9,61.57,97.66,61.57z"/>
	</g>
	<g>
		<path d="M34.77,14h2.07l3.71,5.2L44.2,14h2.02v10.87h-2.17v-7.22l-3.54,5l-3.56-4.95v7.17h-2.17L34.77,14L34.77,14z"/>
		<path d="M48.23,14h8.21v1.86H50.4v2.64h5.26v1.86H50.4V23h6.04v1.86h-8.21C48.23,24.86,48.23,14,48.23,14z"/>
		<path d="M58.31,14h1.99l5.76,7.24V14h2.1v10.87h-1.99l-5.76-7.24v7.24h-2.1C58.31,24.87,58.31,14,58.31,14z"/>
		<path d="M70.18,14h4.36c3.2,0,5.54,2.36,5.54,5.44c0,3.07-2.34,5.43-5.54,5.43h-4.36V14z M74.43,23.01c1.99,0,3.39-1.55,3.39-3.57
			c0-2.03-1.4-3.57-3.39-3.57h-2.08v7.14H74.43z"/>
		<path d="M81.8,14h8.22v1.86h-6.04v2.64h5.26v1.86h-5.26V23h6.04v1.86H81.8V14z"/>
		<path d="M91.87,14h2.17v9.01h5.58v1.86h-7.75V14z"/>
		<path d="M102.65,14v6.37c0,1.71,1.13,2.8,2.75,2.8c1.61,0,2.75-1.09,2.75-2.8V14h2.17v6.38c0,2.72-2.07,4.64-4.92,4.64
			c-2.87,0-4.92-1.93-4.92-4.64V14H102.65z"/>
	</g>
</g>
</svg>
