<?xml version="1.0" encoding="UTF-8" standalone="no"?><!DOCTYPE svg PUBLIC "-//W3C//DTD SVG 1.1//EN" "http://www.w3.org/Graphics/SVG/1.1/DTD/svg11.dtd"><svg width="100%" height="100%" viewBox="0 0 3742 718" version="1.1" xmlns="http://www.w3.org/2000/svg" xmlns:xlink="http://www.w3.org/1999/xlink" xml:space="preserve" xmlns:serif="http://www.serif.com/" style="fill-rule:evenodd;clip-rule:evenodd;stroke-linejoin:round;stroke-miterlimit:2;"><rect id="Artboard1" x="0" y="0" width="3741.78" height="717.648" style="fill:none;"/><clipPath id="_clip1"><rect x="0" y="0" width="3741.78" height="717.648"/></clipPath><g clip-path="url(#_clip1)"><path d="M163.846,262.164c50.372,0 104.429,24.893 131.852,62.816c27.423,-37.923 81.537,-67.627 131.909,-67.627c85.579,0 160.631,62.46 160.631,182.068l1.924,80.671c0,124.013 81.788,139.878 115.465,139.878c33.678,0 112.387,-22.544 112.387,-128.387l0,-223.26c0,-38.405 57.924,-38.405 57.924,0l0,223.26c-2.059,139.52 -102.956,186.043 -170.311,186.043c-67.354,0 -173.197,-39.844 -173.197,-197.534l-1.953,-85.34c0,-100.422 -70.213,-114.926 -102.87,-114.926c-51.44,0 -102.879,42.76 -102.879,114.926l0,254.094c0,15.944 -12.933,28.78 -28.876,28.78l-0.251,0c-15.943,0 -28.875,-12.836 -28.875,-28.78l0,-254.094c0,-72.166 -51.44,-114.926 -102.88,-114.926c-51.439,0 -102.898,27.145 -102.87,133.782l0,235.238c0,15.848 -12.932,28.78 -28.885,28.78c-15.944,0 -28.876,-12.836 -28.876,-28.78l0,-235.238c0,-140.314 77.4,-191.444 160.631,-191.444Zm536.034,-202.064c-73.522,0 -116.042,62.544 -116.042,120.276c0,43.3 -57.694,43.3 -57.704,0c0,-101.031 76.169,-178.008 173.746,-178.008c97.578,0 173.766,76.977 173.766,178.008c0,43.3 -57.868,43.3 -57.868,0c0,-57.732 -42.375,-120.276 -115.898,-120.276Zm5.572,83.784c21.054,0 38.104,17.05 38.104,38.104c0,21.054 -17.05,38.103 -38.104,38.103c-21.053,0 -38.103,-17.049 -38.103,-38.103c0,-21.054 17.05,-38.104 38.103,-38.104Zm483.368,333.566c90.727,29.658 106.767,79.448 104.535,116.301c-4.09,70.684 -75.264,124.077 -165.404,124.077c-75.264,0 -138.173,-39.682 -164.143,-103.467c-6.024,-14.779 1.077,-31.598 15.751,-37.631c14.683,-5.928 31.609,1.068 37.632,15.847c17.214,42.299 58.637,67.586 110.76,67.586c64.959,0 105.891,-35.496 107.835,-69.818c0.491,-9.921 2.04,-36.073 -62.332,-57.078l-108.711,-35.592c-70.298,-23.239 -102.975,-60.384 -100.06,-113.38c3.791,-69.622 73.609,-122.131 162.489,-122.131c74.869,0 138.173,40.16 161.516,102.393c5.638,14.876 -2.05,31.504 -16.925,37.048c-14.684,5.639 -31.407,-2.043 -37.045,-16.921c-14.684,-39.478 -56.886,-64.955 -107.45,-64.955c-57.665,0 -102.783,29.074 -104.919,67.678c-0.684,12.155 -1.944,34.715 60.676,55.426l105.795,34.617Zm554.578,-27.655c0,33.677 -19.244,57.732 -62.543,58.188l-254.572,0c5.35,94.322 65.295,152.083 139.78,152.083c45.012,0 100.358,-32.003 119.602,-70.751c7.102,-14.298 24.191,-16.723 38.489,-9.622c14.193,7.101 15.472,21.294 8.275,35.486c-27.481,65.546 -102.11,102.543 -166.366,102.543c-111.145,0 -197.926,-91.593 -197.926,-227.825c0,-136.232 84.28,-227.733 195.52,-227.733c109.933,0 179.741,106.791 179.741,187.631Zm-315.075,0.525l242.909,0c17.32,1.399 19.091,-12.405 16.358,-24.58c-12.951,-57.733 -61.572,-106.011 -123.933,-106.011c-68.653,0 -124.346,49.008 -135.334,130.591Zm619.801,27.13c90.726,29.658 106.767,79.448 104.534,116.301c-4.089,70.684 -75.264,124.077 -165.403,124.077c-75.264,0 -138.174,-39.682 -164.144,-103.467c-6.023,-14.779 1.078,-31.598 15.761,-37.631c14.674,-5.928 31.599,1.068 37.623,15.847c17.214,42.299 58.637,67.586 110.76,67.586c64.958,0 105.891,-35.496 107.834,-69.818c0.491,-9.921 2.04,-36.073 -62.332,-57.078l-108.71,-35.592c-70.299,-23.239 -102.975,-60.384 -100.06,-113.38c3.791,-69.622 73.609,-122.131 162.488,-122.131c74.87,0 138.173,40.16 161.517,102.393c5.638,14.876 -2.05,31.504 -16.926,37.048c-14.683,5.639 -31.406,-2.043 -37.045,-16.921c-14.683,-39.478 -56.885,-64.955 -107.45,-64.955c-57.665,0 -102.783,29.074 -104.919,67.678c-0.683,12.155 -1.944,34.715 60.677,55.426l105.795,34.617Zm363.116,-157.541c-76.504,0 -128.682,65.133 -128.869,170.026c0,104.894 52.179,170.122 128.776,170.122c46.293,0 86.803,-23.43 108.259,-67.557c6.864,-14.202 23.71,-20.033 37.447,-12.836c13.735,7.092 19.388,24.402 12.422,38.691c-30.675,63.092 -91.319,99.252 -158.128,99.252c-107.552,0 -184.577,-91.574 -184.577,-227.769c0,-136.196 76.932,-227.674 184.577,-227.674c67.088,0 127.732,36.164 158.222,99.255c6.966,14.193 1.415,31.595 -12.423,38.691c-13.737,6.999 -30.583,1.458 -37.354,-12.832c-21.456,-44.038 -61.863,-67.369 -108.352,-67.369Zm419.687,-57.745c111.328,0 190.796,91.576 190.796,227.674c0,136.291 -79.565,227.769 -190.796,227.769c-111.125,0 -190.71,-91.574 -190.71,-227.769c0,-136.196 79.489,-227.674 190.71,-227.674Zm0,397.893c79.238,0 133.151,-65.228 133.151,-170.122c0,-104.99 -54.009,-170.123 -133.151,-170.123c-79.142,0 -133.054,65.23 -133.054,170.123c0,104.894 53.912,170.122 133.054,170.122Zm340.994,-157.34l0,186.379c0,15.934 -12.923,28.818 -28.866,28.818c-15.944,0 -28.867,-12.922 -28.867,-28.866l0,-397.585c0,-15.942 12.923,-28.867 28.867,-28.867c15.943,0 28.866,12.913 28.866,28.855l0,9.202c0,13.949 -0.501,25.422 -1.078,38.864c-0.163,3.693 -0.327,9.493 -0.491,13.576c35.227,-54.88 88.639,-90.929 145.9,-90.929c45.946,0 43.771,57.733 0,57.733c-89.687,0 -144.331,91.41 -144.331,182.82Zm573.186,-52.922c0,33.677 -19.244,57.732 -62.544,58.188l-254.571,0c5.35,94.322 65.286,152.083 139.77,152.083c45.012,0 100.359,-32.003 119.603,-70.751c7.101,-14.298 24.19,-16.723 38.488,-9.622c14.193,7.101 15.472,21.294 8.275,35.486c-27.48,65.546 -102.11,102.543 -166.366,102.543c-111.145,0 -197.917,-91.593 -197.917,-227.825c0,-136.232 84.28,-227.733 195.521,-227.733c109.923,0 179.741,106.791 179.741,187.631Zm-315.075,0.525l242.909,0c17.32,1.399 19.09,-12.405 16.358,-24.58c-12.952,-57.733 -61.582,-106.011 -123.933,-106.011c-68.654,0 -124.346,49.008 -135.334,130.591Z" style="fill:#6d6d6d;fill-rule:nonzero;"/></g></svg>